<?xml version="1.0" encoding="utf-8"?>
<!-- Generator: Adobe Illustrator 27.5.0, SVG Export Plug-In . SVG Version: 6.00 Build 0)  -->
<svg version="1.1" id="Camada_1" xmlns="http://www.w3.org/2000/svg" xmlns:xlink="http://www.w3.org/1999/xlink" x="0px" y="0px"
	 viewBox="0 0 50 50" style="enable-background:new 0 0 50 50;" xml:space="preserve">
<style type="text/css">
	.st0{fill:#551555;}
</style>
<g id="Camada_1_00000163055485220437817200000016964467820972021157_">
</g>
<g id="Camada_2_00000091714707683809118320000012916307284202622624_">
	<g>
		<path class="st0" d="M25,0.9C11.7,0.9,1,11.7,1,25s10.7,24.1,24,24.1S49,38.3,49,25S38.3,0.9,25,0.9z M25,44.9
			C14,44.9,5.2,36,5.2,25S14,5.1,25,5.1S44.8,14,44.8,25S36,44.9,25,44.9z"/>
		<path class="st0" d="M30.5,10.9c-1.1-1.1-2.8-1.1-3.9,0L14.8,22.7c-0.6,0.6-0.9,1.5-0.8,2.3c-0.1,0.8,0.1,1.7,0.8,2.3l11.7,11.8
			c1.1,1.1,2.8,1.1,3.9,0s1.1-2.8,0-3.9L20.3,25l10.2-10.2C31.6,13.7,31.6,12,30.5,10.9z"/>
	</g>
</g>
<g id="Camada_2_00000171679210263875054180000016000554814691066550_">
	<g>
		<path class="st0" d="M25,0.9C11.7,0.9,1,11.7,1,25s10.7,24.1,24,24.1S49,38.3,49,25S38.3,0.9,25,0.9z M25,44.9
			C14,44.9,5.2,36,5.2,25S14,5.1,25,5.1S44.8,14,44.8,25S36,44.9,25,44.9z"/>
		<path class="st0" d="M30.5,10.9c-1.1-1.1-2.8-1.1-3.9,0L14.8,22.7c-0.6,0.6-0.9,1.5-0.8,2.3c-0.1,0.8,0.1,1.7,0.8,2.3l11.7,11.8
			c1.1,1.1,2.8,1.1,3.9,0s1.1-2.8,0-3.9L20.3,25l10.2-10.2C31.6,13.7,31.6,12,30.5,10.9z"/>
	</g>
</g>
</svg>
