<?xml version="1.0" encoding="utf-8"?>
<!-- Generator: Adobe Illustrator 27.5.0, SVG Export Plug-In . SVG Version: 6.00 Build 0)  -->
<svg version="1.1" id="Camada_1" xmlns="http://www.w3.org/2000/svg" xmlns:xlink="http://www.w3.org/1999/xlink" x="0px" y="0px"
	 viewBox="0 0 50 50" style="enable-background:new 0 0 50 50;" xml:space="preserve">
<style type="text/css">
	.st0{fill:#BEA1CD;stroke:#BEA1CD;stroke-miterlimit:10;}
	.st1{fill:#4F2155;}
</style>
<circle class="st0" cx="25" cy="25" r="23.45"/>
<path class="st1" d="M33.29,33.09c1.43-9.45-5.42-9.34-5.42-13.91c0-3.74,4.3-6.73,4.3-10.47c-1.21-0.3-2.59-1.37-4.77-1.85
	l-0.61-1.44l-3.15,0.05l-0.11,0.38l-0.44,1.41C21.71,7.8,20.92,8.4,18,9.14c0,3.64,4.15,4.98,4.15,8.63c0,4.67-5.64,3.78-5.64,15.91
	l8.09-0.28v9.04l-0.44,0.76l-0.54,0.95h-2.32v0.43h7.36v-0.43h-2.39l-0.55-0.95l-0.43-0.73v-9.09L33.29,33.09z M25.4,43.35
	l0.46,0.79h-0.92h-0.91l0.46-0.79l0.46-0.79L25.4,43.35z"/>
</svg>
