<?xml version="1.0" encoding="utf-8"?>
<!-- Generator: Adobe Illustrator 27.3.1, SVG Export Plug-In . SVG Version: 6.00 Build 0)  -->
<svg version="1.1" id="e-mail" xmlns="http://www.w3.org/2000/svg" xmlns:xlink="http://www.w3.org/1999/xlink" x="0px" y="0px"
	 viewBox="0 0 100 100" style="enable-background:new 0 0 100 100;" xml:space="preserve">
<style type="text/css">
	.st0{fill:none;stroke:#BD81F3;stroke-width:4;stroke-miterlimit:10;}
</style>
<g>
	<path class="st0" d="M89.8,83.66H10.2c-3.55,0-6.43-2.88-6.43-6.43V22.77c0-3.55,2.88-6.43,6.43-6.43h79.6
		c3.55,0,6.43,2.88,6.43,6.43v54.46C96.23,80.78,93.35,83.66,89.8,83.66z"/>
	<path class="st0" d="M96.17,23.1c-0.28-3.76-3.41-6.73-7.23-6.73H10.99c-3.67,0-6.7,2.74-7.18,6.28c0.38,0.42,0.8,0.82,1.27,1.16
		l40.21,29.06c2.94,2.12,6.9,2.12,9.83,0l40.21-29.06C95.63,23.6,95.91,23.35,96.17,23.1z"/>
</g>
</svg>
