<?xml version="1.0" standalone="no"?>
<!DOCTYPE svg PUBLIC "-//W3C//DTD SVG 20010904//EN"
 "http://www.w3.org/TR/2001/REC-SVG-20010904/DTD/svg10.dtd">
<svg version="1.0" xmlns="http://www.w3.org/2000/svg"
 width="512.000000pt" height="512.000000pt" viewBox="0 0 512.000000 512.000000"
 preserveAspectRatio="xMidYMid meet">

<g transform="translate(0.000000,512.000000) scale(0.100000,-0.100000)"
fill="#BD81F3" stroke="none">
<path d="M269 5107 c-104 -30 -190 -104 -237 -206 -23 -48 -27 -70 -26 -146 0
-165 -82 -71 1043 -1197 l996 -998 -996 -997 c-1125 -1127 -1043 -1033 -1043
-1198 -1 -77 3 -98 26 -147 37 -79 98 -142 177 -181 60 -29 74 -32 156 -32
165 1 71 -81 1197 1044 l998 996 998 -996 c876 -875 1003 -999 1049 -1018 304
-126 608 178 482 482 -19 46 -143 173 -1018 1050 l-996 997 996 998 c1125
1126 1043 1032 1044 1197 0 82 -3 96 -32 156 -39 79 -102 140 -181 177 -49 23
-70 27 -147 26 -165 0 -71 82 -1197 -1043 l-998 -996 -998 996 c-890 889
-1003 998 -1051 1018 -66 28 -178 36 -242 18z"/>
</g>
</svg>
