<?xml version="1.0" encoding="utf-8"?>
<!-- Generator: Adobe Illustrator 27.3.1, SVG Export Plug-In . SVG Version: 6.00 Build 0)  -->
<svg version="1.1" id="menu" xmlns="http://www.w3.org/2000/svg" xmlns:xlink="http://www.w3.org/1999/xlink" x="0px" y="0px"
	 viewBox="0 0 100 100" style="enable-background:new 0 0 100 100;" xml:space="preserve">
<style type="text/css">
	.st0{fill:#BD81F3;stroke:#BD81F3;stroke-width:0.5;stroke-miterlimit:10;}
</style>
<g>
	<path class="st0" d="M87.57,28.57H12.43c-2.68,0-4.86-2.17-4.86-4.86v0c0-2.68,2.17-4.86,4.86-4.86h75.14
		c2.68,0,4.86,2.17,4.86,4.86v0C92.42,26.4,90.25,28.57,87.57,28.57z"/>
	<path class="st0" d="M87.57,54.86H12.43c-2.68,0-4.86-2.17-4.86-4.86v0c0-2.68,2.17-4.86,4.86-4.86h75.14
		c2.68,0,4.86,2.17,4.86,4.86v0C92.42,52.68,90.25,54.86,87.57,54.86z"/>
	<path class="st0" d="M87.57,81.14H12.43c-2.68,0-4.86-2.17-4.86-4.86v0c0-2.68,2.17-4.86,4.86-4.86h75.14
		c2.68,0,4.86,2.17,4.86,4.86v0C92.42,78.97,90.25,81.14,87.57,81.14z"/>
</g>
</svg>
