<?xml version="1.0" encoding="utf-8"?>
<!-- Generator: Adobe Illustrator 27.3.1, SVG Export Plug-In . SVG Version: 6.00 Build 0)  -->
<svg version="1.1" id="Camada_1" xmlns="http://www.w3.org/2000/svg" xmlns:xlink="http://www.w3.org/1999/xlink" x="0px" y="0px"
	 viewBox="0 0 100 100" style="enable-background:new 0 0 100 100;" xml:space="preserve">
<style type="text/css">
	.st0{fill:none;stroke:#BD81F3;stroke-width:3;stroke-miterlimit:10;}
</style>
<g>
	<path class="st0" d="M34.06,25.63c-1.95-1.73-4.95-1.63-6.7,0.3c-4.81,5.31-8.86,18.03,9.81,36.22
		c-0.83-0.77,21.04,23.46,37.93,8.64c2.01-1.76,2.12-4.79,0.19-6.63l-8.1-7.7c-1.43-1.36-3.7-1.27-5.02,0.21l-2.3,2.57
		c-1.54,1.72-4.19,1.84-5.87,0.27L41.92,48.4c-1.72-1.61-4.43-4.29-2.93-6.11l2.85-3.46c1.62-1.97,2.09-4.81,0.18-6.5L34.06,25.63z"
		/>
	<circle class="st0" cx="50" cy="50" r="44.66"/>
</g>
</svg>
