<?xml version="1.0" encoding="utf-8"?>
<!-- Generator: Adobe Illustrator 27.3.1, SVG Export Plug-In . SVG Version: 6.00 Build 0)  -->
<svg version="1.1" id="twitter" xmlns="http://www.w3.org/2000/svg" xmlns:xlink="http://www.w3.org/1999/xlink" x="0px" y="0px"
	 viewBox="0 0 100 100" style="enable-background:new 0 0 100 100;" xml:space="preserve">
<style type="text/css">
	.st0{fill:#BD81F3;stroke:#BD81F3;stroke-width:0.25;stroke-miterlimit:10;}
</style>
<path class="st0" d="M50,7.65C26.61,7.65,7.65,26.61,7.65,50c0,23.39,18.96,42.35,42.35,42.35S92.35,73.39,92.35,50
	C92.35,26.61,73.39,7.65,50,7.65z M71.76,37.93c-1.04,1.16-2.1,1.97-2.94,2.52c0.06,2.5-0.09,10.26-5.54,17.66
	c-4.55,6.19-10.36,8.8-12.82,9.74c-2.42,0.76-6.63,1.73-11.84,1.19c-5.73-0.59-9.96-2.72-12.19-4.06c1.74,0.13,4.58,0.13,7.85-0.91
	c2.76-0.88,4.8-2.18,6.1-3.15c-0.89-0.07-3.22-0.36-5.47-2.1c-2.13-1.66-2.99-3.7-3.29-4.55c0.55,0.13,1.39,0.26,2.38,0.14
	c0.68-0.08,1.25-0.25,1.68-0.42c-0.94-0.23-2.94-0.87-4.69-2.66c-2.67-2.73-2.79-6.14-2.8-6.94c0.54,0.33,1.34,0.74,2.38,0.98
	c0.76,0.18,1.44,0.22,1.96,0.21c-0.72-0.51-2.86-2.18-3.78-5.25c-1.14-3.79,0.43-6.92,0.77-7.57c1.89,2.26,5.98,6.5,12.58,8.65
	c2.84,0.93,5.42,1.23,7.46,1.3c-0.93-4.17,0.93-8.47,4.55-10.58c3.82-2.23,8.76-1.55,11.91,1.68c0.86-0.08,1.98-0.27,3.22-0.7
	c1.27-0.44,2.28-0.99,3.01-1.47c-0.19,0.67-0.54,1.57-1.19,2.52c-0.98,1.43-2.16,2.25-2.87,2.66c0.72-0.01,1.63-0.09,2.66-0.35
	c1.14-0.28,2.06-0.69,2.73-1.05C73.15,36.15,72.56,37.03,71.76,37.93z"/>
</svg>
