<?xml version="1.0" encoding="utf-8"?>
<!-- Generator: Adobe Illustrator 26.3.1, SVG Export Plug-In . SVG Version: 6.00 Build 0)  -->
<svg version="1.1" id="Camada_1" xmlns="http://www.w3.org/2000/svg" xmlns:xlink="http://www.w3.org/1999/xlink" x="0px" y="0px"
	 viewBox="0 0 100 100" style="enable-background:new 0 0 100 100;" xml:space="preserve">
<style type="text/css">
	.st0{fill:#4E2055;}
</style>
<path class="st0" d="M67.06,66.66C70,47.21,55.9,47.45,55.9,38.03c0-7.69,8.84-13.85,8.84-21.54c-2.49-0.61-5.33-2.82-9.82-3.81
	l-1.26-2.96l-6.48,0.1l-0.22,0.78l-0.91,2.91c-2.82,1.1-4.44,2.33-10.45,3.85c0,7.5,8.54,10.25,8.54,17.76
	c0,9.61-11.6,7.78-11.6,32.73l16.65-0.57v18.61l-0.9,1.57l-1.12,1.95h-4.77v0.88h15.15V89.4h-4.92l-1.14-1.96l-0.88-1.51V67.23
	L67.06,66.66z M50.83,87.76l0.94,1.63h-1.89H48l0.94-1.63l0.94-1.63L50.83,87.76z"/>
</svg>
