<?xml version="1.0" encoding="utf-8"?>
<!-- Generator: Adobe Illustrator 27.3.1, SVG Export Plug-In . SVG Version: 6.00 Build 0)  -->
<svg version="1.1" id="Camada_1" xmlns="http://www.w3.org/2000/svg" xmlns:xlink="http://www.w3.org/1999/xlink" x="0px" y="0px"
	 viewBox="0 0 45 25" style="enable-background:new 0 0 45 25;" xml:space="preserve">
<style type="text/css">
	.st0{fill:#BD81F3;}
	.st1{fill:#BD81F3;stroke:#BD81F3;stroke-width:0.25;stroke-miterlimit:10;}
</style>
<g>
	<g>
		<path class="st0" d="M23.7,8.4c-0.1,0.3-0.3,0.5-0.5,0.7c-0.2,0.2-0.4,0.3-0.7,0.5c-0.3,0.1-0.5,0.2-0.8,0.2h-0.6
			c-0.3,0-0.6,0-0.8-0.2C20,9.4,19.7,9.2,19.5,9c-0.2-0.2-0.3-0.4-0.5-0.7c-0.1-0.3-0.2-0.5-0.2-0.8V2.9c0-0.3,0-0.6,0.2-0.8
			s0.3-0.5,0.5-0.7S20,1,20.2,0.9c0.3-0.1,0.5-0.2,0.8-0.2h0.6c0.3,0,0.6,0,0.8,0.2C22.8,1,23,1.1,23.2,1.4s0.3,0.4,0.5,0.7
			c0.1,0.3,0.2,0.5,0.2,0.8v4.6C23.8,7.8,23.8,8.1,23.7,8.4z M23,2.8c0-0.2,0-0.4-0.1-0.5c-0.1-0.2-0.2-0.3-0.3-0.4
			c-0.1-0.1-0.3-0.2-0.4-0.3c-0.2-0.1-0.3-0.1-0.5-0.1h-0.5c-0.2,0-0.4,0-0.5,0.1c-0.2,0.1-0.3,0.2-0.5,0.3s-0.2,0.3-0.3,0.4
			c-0.1,0.2-0.1,0.3-0.1,0.5v4.6c0,0.2,0,0.4,0.1,0.5c0.1,0.2,0.2,0.3,0.3,0.5c0.1,0.2,0.3,0.2,0.5,0.3s0.3,0.1,0.5,0.1h0.5
			c0.2,0,0.4,0,0.5-0.1c0.2-0.1,0.3-0.2,0.4-0.3c0.1-0.1,0.2-0.3,0.3-0.5C23,7.9,23,7.7,23,7.5V2.8z"/>
		<path class="st0" d="M27.5,7.6v0.3V7.6l2-6.8h0.8l-2.6,8.7h-0.4l-2.6-8.7h0.8L27.5,7.6z"/>
		<path class="st0" d="M31.4,9.5V0.8h4.9v0.8h-4.1v3.2h3.3v0.8h-3.3v3.2h4.1v0.8L31.4,9.5L31.4,9.5z"/>
		<path class="st0" d="M41.9,9.5l-2.3-3.7h-1.1v3.7h-0.8V0.8h2.8c0.3,0,0.6,0,0.8,0.2s0.5,0.3,0.7,0.5c0.2,0.2,0.3,0.4,0.5,0.7
			s0.2,0.5,0.2,0.8v0.7c0,0.3,0,0.6-0.2,0.8c-0.1,0.3-0.3,0.5-0.5,0.7c-0.2,0.2-0.4,0.3-0.7,0.5c-0.3,0.1-0.5,0.2-0.8,0.2l2.3,3.7
			H41.9L41.9,9.5L41.9,9.5z M41.8,3c0-0.2,0-0.4-0.1-0.5c-0.1-0.2-0.2-0.3-0.3-0.5c-0.1-0.2-0.3-0.2-0.4-0.3
			c-0.2-0.1-0.3-0.1-0.5-0.1h-1.9V5h1.9c0.2,0,0.4,0,0.5-0.1c0.2-0.1,0.3-0.2,0.4-0.3c0.1-0.1,0.2-0.3,0.3-0.5
			c0.1-0.2,0.1-0.3,0.1-0.5V3z"/>
	</g>
	<g>
		<path class="st0" d="M26.8,19.8c-0.1,0.3-0.3,0.5-0.5,0.7s-0.4,0.3-0.7,0.5c-0.3,0.1-0.5,0.2-0.8,0.2h-0.6c-0.3,0-0.6,0-0.8-0.2
			c-0.3-0.1-0.5-0.3-0.7-0.5s-0.3-0.4-0.5-0.7C22.1,19.6,22,19.3,22,19v-4.6c0-0.3,0-0.6,0.2-0.8c0.1-0.3,0.3-0.5,0.5-0.7
			c0.2-0.2,0.4-0.3,0.7-0.5c0.3-0.1,0.5-0.2,0.8-0.2h0.6c0.3,0,0.6,0,0.8,0.2c0.3,0.1,0.5,0.3,0.7,0.5s0.3,0.4,0.5,0.7
			c0.1,0.3,0.2,0.5,0.2,0.8V19C26.9,19.3,26.8,19.6,26.8,19.8z M26.1,14.3c0-0.2,0-0.4-0.1-0.5c-0.1-0.2-0.2-0.3-0.3-0.4
			c-0.1-0.1-0.3-0.2-0.4-0.3S25,13,24.7,13h-0.5c-0.2,0-0.4,0-0.5,0.1c-0.2,0.1-0.3,0.2-0.5,0.3s-0.2,0.3-0.3,0.4
			c-0.1,0.2-0.1,0.3-0.1,0.5V19c0,0.2,0,0.4,0.1,0.5c0.1,0.2,0.2,0.3,0.3,0.5c0.1,0.1,0.3,0.2,0.5,0.3s0.3,0.1,0.5,0.1h0.5
			c0.2,0,0.4,0,0.5-0.1c0.2-0.1,0.3-0.2,0.4-0.3c0.1-0.1,0.2-0.3,0.3-0.5c0.1-0.2,0.1-0.3,0.1-0.5V14.3L26.1,14.3z"/>
		<path class="st0" d="M33.4,19.8c-0.1,0.3-0.3,0.5-0.5,0.7c-0.2,0.2-0.4,0.3-0.7,0.5c-0.3,0.1-0.5,0.2-0.8,0.2h-0.6
			c-0.3,0-0.6,0-0.8-0.2c-0.3-0.1-0.5-0.3-0.7-0.5c-0.2-0.2-0.3-0.4-0.5-0.7c-0.1-0.3-0.2-0.5-0.2-0.8v-4.6c0-0.3,0-0.6,0.2-0.8
			c0.1-0.3,0.3-0.5,0.5-0.7c0.2-0.2,0.4-0.3,0.7-0.5c0.3-0.1,0.5-0.2,0.8-0.2h0.6c0.3,0,0.6,0,0.8,0.2c0.3,0.1,0.5,0.3,0.7,0.5
			c0.2,0.2,0.3,0.4,0.5,0.7c0.1,0.3,0.2,0.5,0.2,0.8v0.3l-0.8,0.1v-0.5c0-0.2,0-0.4-0.1-0.5c-0.1-0.2-0.2-0.3-0.3-0.4
			s-0.3-0.2-0.4-0.3C31.7,13,31.6,13,31.4,13h-0.5c-0.2,0-0.4,0-0.5,0.1s-0.3,0.2-0.5,0.3c-0.1,0.1-0.2,0.3-0.3,0.4
			c-0.1,0.2-0.1,0.3-0.1,0.5V19c0,0.2,0,0.4,0.1,0.5c0.1,0.2,0.2,0.3,0.3,0.5c0.1,0.2,0.3,0.2,0.5,0.3s0.3,0.1,0.5,0.1h0.5
			c0.2,0,0.4,0,0.5-0.1c0.2-0.1,0.3-0.2,0.4-0.3c0.1-0.1,0.2-0.3,0.3-0.5s0.1-0.3,0.1-0.5v-0.5l0.8,0.1V19
			C33.5,19.3,33.5,19.6,33.4,19.8z"/>
		<path class="st0" d="M35.3,21v-8.7h0.8V21H35.3z M39.5,21l-3.3-4.4l3.3-4.4h1l-3.4,4.4l3.4,4.4H39.5z"/>
	</g>
	<path class="st0" d="M2.2,24.1l13.9-0.5c1.2-7.7-4.5-7.7-4.5-11.4c0-3.1,3.6-5.6,3.6-8.6c-1-0.3-2.2-1.2-4-1.5l-0.5-1.2l-2.6,0
		L8,1.2L7.7,2.4C6.5,2.8,5.9,3.3,3.5,3.9c0,3,3.4,4.1,3.4,7.1C6.9,14.9,2.2,14.2,2.2,24.1z"/>
	<path class="st1" d="M19.7,22.9c0,0,1.4-1.1,4.4,0c0,0,3.1,1.1,4.4-0.5l0.5,0.4c0,0-1.3,2-5,0.7c0,0-3-1.5-5,0.7V12.4h0.8
		L19.7,22.9"/>
</g>
</svg>
