<?xml version="1.0" encoding="utf-8"?>
<!-- Generator: Adobe Illustrator 27.3.1, SVG Export Plug-In . SVG Version: 6.00 Build 0)  -->
<svg version="1.1" id="Camada_1" xmlns="http://www.w3.org/2000/svg" xmlns:xlink="http://www.w3.org/1999/xlink" x="0px" y="0px"
	 viewBox="0 0 30 8" style="enable-background:new 0 0 30 8;" xml:space="preserve">
<style type="text/css">
	.st0{fill:#551555;}
</style>
<g>
	<g>
		<path class="st0" d="M25,4.7c-0.1,0.1-0.2,0.3-0.3,0.4c-0.1,0.1-0.3,0.2-0.4,0.2c-0.2,0.1-0.3,0.1-0.5,0.1h-0.4
			c-0.2,0-0.4,0-0.5-0.1c-0.2-0.1-0.3-0.1-0.4-0.2c-0.1-0.1-0.2-0.2-0.3-0.4c-0.1-0.1-0.1-0.3-0.1-0.4V1.8c0-0.2,0-0.3,0.1-0.4
			c0.1-0.1,0.2-0.3,0.3-0.4c0.1-0.1,0.3-0.2,0.4-0.2c0.2-0.1,0.3-0.1,0.5-0.1h0.4c0.2,0,0.4,0,0.5,0.1c0.2,0.1,0.3,0.1,0.4,0.2
			c0.1,0.1,0.2,0.2,0.3,0.4c0.1,0.1,0.1,0.3,0.1,0.4V2l-0.5,0.1V1.8c0-0.1,0-0.2-0.1-0.3c0-0.1-0.1-0.2-0.2-0.2
			c-0.1-0.1-0.2-0.1-0.3-0.2c-0.1,0-0.2-0.1-0.3-0.1h-0.3c-0.1,0-0.2,0-0.3,0.1c-0.1,0-0.2,0.1-0.3,0.2c-0.1,0.1-0.1,0.1-0.2,0.2
			c0,0.1-0.1,0.2-0.1,0.3v2.4c0,0.1,0,0.2,0.1,0.3c0,0.1,0.1,0.2,0.2,0.2c0.1,0.1,0.2,0.1,0.3,0.2c0.1,0,0.2,0.1,0.3,0.1h0.3
			c0.1,0,0.2,0,0.3-0.1s0.2-0.1,0.3-0.2s0.1-0.1,0.2-0.2c0-0.1,0.1-0.2,0.1-0.3V4l0.5,0.1v0.2C25.1,4.4,25.1,4.5,25,4.7z"/>
		<path class="st0" d="M26.2,5.3V0.8h0.5v4.5L26.2,5.3L26.2,5.3z M28.8,5.3l-2-2.3l2-2.3h0.6L27.3,3l2.1,2.3H28.8z"/>
	</g>
	<g>
		<path class="st0" d="M21.4,6.1c-0.3,0.3-0.5,0.4-0.8,0.5c-0.5,0.1-1.2-0.1-1.8-0.3c-0.4-0.1-0.7-0.2-0.9-0.2
			c-0.4,0-0.8,0.1-0.8,0.1c-0.1,0-0.1,0.1-0.2,0.1V0.7h-0.6v6.6l0,0l0.6-0.5c0.1-0.1,0.3-0.1,0.4-0.2c0,0,0.3-0.1,0.6-0.1
			c0.2,0,0.5,0.1,0.8,0.2c0.5,0.1,1.1,0.3,1.6,0.3c0.1,0,0.3,0,0.4,0C21,7,21.4,6.8,21.7,6.4L21.4,6.1z"/>
	</g>
	<g>
		<path class="st0" d="M20.9,4.7c-0.1,0.1-0.2,0.3-0.3,0.4c-0.1,0.1-0.3,0.2-0.4,0.2c-0.2,0.1-0.3,0.1-0.5,0.1h-0.4
			c-0.2,0-0.4,0-0.5-0.1c-0.2-0.1-0.3-0.1-0.4-0.2c-0.1-0.1-0.2-0.2-0.3-0.4C18,4.5,18,4.4,18,4.2V1.8c0-0.2,0-0.3,0.1-0.4
			c0.1-0.1,0.2-0.3,0.3-0.4c0.1-0.1,0.3-0.2,0.4-0.2c0.2-0.1,0.3-0.1,0.5-0.1h0.4c0.2,0,0.4,0,0.5,0.1c0.2,0.1,0.3,0.1,0.4,0.2
			c0.1,0.1,0.2,0.2,0.3,0.4C20.9,1.5,21,1.7,21,1.8v2.4C21,4.4,20.9,4.5,20.9,4.7z M20.5,1.8c0-0.1,0-0.2-0.1-0.3
			c0-0.1-0.1-0.2-0.2-0.2c-0.1-0.1-0.2-0.1-0.3-0.2c-0.1,0-0.2-0.1-0.3-0.1h-0.3c-0.1,0-0.2,0-0.3,0.1s-0.2,0.1-0.3,0.2
			c-0.1,0.1-0.1,0.1-0.2,0.2c0,0.1-0.1,0.2-0.1,0.3v2.4c0,0.1,0,0.2,0.1,0.3c0,0.1,0.1,0.2,0.2,0.2c0.1,0.1,0.2,0.1,0.3,0.2
			c0.1,0,0.2,0.1,0.3,0.1h0.3c0.1,0,0.2,0,0.3-0.1c0.1,0,0.2-0.1,0.3-0.2s0.1-0.1,0.2-0.2c0-0.1,0.1-0.2,0.1-0.3V1.8z"/>
	</g>
	<g>
		<path class="st0" d="M3.5,4.7C3.5,4.9,3.4,5,3.2,5.1C3.1,5.2,3,5.3,2.8,5.3C2.7,5.4,2.5,5.4,2.3,5.4H1.9c-0.2,0-0.4,0-0.5-0.1
			C1.3,5.3,1.1,5.2,1,5.1C0.9,5,0.8,4.9,0.7,4.7C0.6,4.6,0.6,4.5,0.6,4.3V1.9c0-0.2,0-0.3,0.1-0.4C0.8,1.3,0.9,1.2,1,1.1
			C1.1,1,1.3,0.9,1.4,0.8c0.2-0.1,0.3-0.1,0.5-0.1h0.4c0.2,0,0.4,0,0.5,0.1C3,0.9,3.1,1,3.2,1.1c0.1,0.1,0.2,0.2,0.3,0.4
			c0.1,0.1,0.1,0.3,0.1,0.4v2.4C3.6,4.5,3.6,4.6,3.5,4.7z M3.1,1.9c0-0.1,0-0.2-0.1-0.3C3,1.5,3,1.4,2.9,1.4
			C2.8,1.3,2.7,1.2,2.6,1.2c-0.1,0-0.2-0.1-0.3-0.1H2c-0.1,0-0.2,0-0.3,0.1c-0.1,0-0.2,0.1-0.3,0.2C1.3,1.4,1.2,1.5,1.2,1.6
			c0,0.1-0.1,0.2-0.1,0.3v2.4c0,0.1,0,0.2,0.1,0.3c0,0.1,0.1,0.2,0.2,0.2C1.4,4.9,1.5,4.9,1.6,5C1.7,5,1.8,5,2,5h0.3
			C2.4,5,2.5,5,2.6,5c0.1,0,0.2-0.1,0.3-0.2C3,4.7,3,4.7,3.1,4.6c0-0.1,0.1-0.2,0.1-0.3V1.9z"/>
		<path class="st0" d="M5.9,4.4l0,0.2L5.9,4.4l1.2-3.5h0.5L6.1,5.3H5.8L4.2,0.8h0.5L5.9,4.4z"/>
		<path class="st0" d="M8.3,5.3V0.8h3v0.4H8.8v1.7h2.1v0.4H8.8V5h2.5v0.4C11.4,5.3,8.3,5.3,8.3,5.3z"/>
		<path class="st0" d="M14.8,5.3l-1.5-1.9h-0.7v1.9h-0.5V0.8h1.7c0.2,0,0.4,0,0.5,0.1C14.6,1,14.7,1,14.8,1.2
			c0.1,0.1,0.2,0.2,0.3,0.4c0.1,0.1,0.1,0.3,0.1,0.4v0.4c0,0.2,0,0.3-0.1,0.4C15.1,2.9,15,3,14.8,3.1c-0.1,0.1-0.3,0.2-0.4,0.2
			c-0.2,0.1-0.3,0.1-0.5,0.1l1.5,1.9H14.8z M14.7,1.9c0-0.1,0-0.2-0.1-0.3c0-0.1-0.1-0.2-0.2-0.2c-0.1-0.1-0.2-0.1-0.3-0.2
			c-0.1,0-0.2-0.1-0.3-0.1h-1.2V3h1.2C14,3,14.1,3,14.2,3c0.1,0,0.2-0.1,0.3-0.2c0.1-0.1,0.1-0.1,0.2-0.2c0-0.1,0.1-0.2,0.1-0.3V1.9
			z"/>
	</g>
</g>
</svg>
